<?xml version="1.0" encoding="utf-8"?>
<!-- Generator: Adobe Illustrator 26.2.0, SVG Export Plug-In . SVG Version: 6.00 Build 0)  -->
<svg version="1.1" id="Layer_1" xmlns:ev="http://www.w3.org/2001/xml-events"
	 xmlns="http://www.w3.org/2000/svg" xmlns:xlink="http://www.w3.org/1999/xlink" x="0px" y="0px" viewBox="0 0 558.9 404.3"
	 style="enable-background:new 0 0 558.9 404.3;" xml:space="preserve">
<style type="text/css">
	.st0{fill:none;stroke:#67C8F3;stroke-width:4.9902;stroke-miterlimit:2.4951;}
	.st1{fill:none;stroke:#68ECAC;stroke-width:4.9902;stroke-miterlimit:2.4951;}
	.st2{fill:none;stroke:#103129;stroke-width:4.9902;stroke-miterlimit:2.4951;}
	.st3{fill:none;stroke:#98161A;stroke-width:4.9902;stroke-miterlimit:2.4951;}
	.st4{fill:none;stroke:#5D77FE;stroke-width:4.9902;stroke-miterlimit:2.4951;}
	.st5{fill:none;stroke:#F98E87;stroke-width:4.9902;stroke-miterlimit:2.4951;}
	.st6{fill:none;stroke:#F88B10;stroke-width:4.9902;stroke-miterlimit:2.4951;}
	.st7{fill:none;stroke:#371230;stroke-width:4.9902;stroke-miterlimit:2.4951;}
	.st8{fill:none;stroke:#004F72;stroke-width:4.9902;stroke-miterlimit:2.4951;}
	.st9{fill:none;stroke:#535216;stroke-width:4.9902;stroke-miterlimit:2.4951;}
	.st10{fill:none;stroke:#B9B1F3;stroke-width:4.9902;stroke-miterlimit:2.4951;}
	.st11{fill:none;stroke:#F72424;stroke-width:4.9902;stroke-miterlimit:2.4951;}
	.st12{fill:none;stroke:#3CB9B3;stroke-width:4.9902;stroke-miterlimit:2.4951;}
	.st13{fill:none;stroke:#278C18;stroke-width:4.9902;stroke-miterlimit:2.4951;}
	.st14{fill:#278C18;stroke:#FFFFFF;stroke-width:0.6238;stroke-miterlimit:2.4951;}
	.st15{fill:#67C8F3;stroke:#FFFFFF;stroke-width:0.6238;stroke-miterlimit:2.4951;}
	.st16{fill:#F88B10;stroke:#FFFFFF;stroke-width:0.6238;stroke-miterlimit:2.4951;}
	.st17{fill:#103129;stroke:#FFFFFF;stroke-width:0.6238;stroke-miterlimit:2.4951;}
	.st18{fill:#5D77FE;stroke:#FFFFFF;stroke-width:0.6238;stroke-miterlimit:2.4951;}
	.st19{fill:#98161A;stroke:#FFFFFF;stroke-width:0.6238;stroke-miterlimit:2.4951;}
	.st20{fill:#68ECAC;stroke:#FFFFFF;stroke-width:0.6238;stroke-miterlimit:2.4951;}
	.st21{fill:#F98E87;stroke:#FFFFFF;stroke-width:0.6238;stroke-miterlimit:2.4951;}
	.st22{fill:#371230;stroke:#FFFFFF;stroke-width:0.6238;stroke-miterlimit:2.4951;}
	.st23{fill:#535216;stroke:#FFFFFF;stroke-width:0.6238;stroke-miterlimit:2.4951;}
	.st24{fill:#F72424;stroke:#FFFFFF;stroke-width:0.6238;stroke-miterlimit:2.4951;}
	.st25{fill:#004F72;stroke:#FFFFFF;stroke-width:0.6238;stroke-miterlimit:2.4951;}
	.st26{fill:#3CB9B3;stroke:#FFFFFF;stroke-width:0.6238;stroke-miterlimit:2.4951;}
	.st27{fill:#B9B1F3;stroke:#FFFFFF;stroke-width:0.6238;stroke-miterlimit:2.4951;}
	.st28{fill:#0000FF;stroke:#FFFFFF;stroke-width:0.6238;stroke-miterlimit:2.4951;}
	.st29{fill:#FFFFFF;}
	.st30{font-family:'ArialMT';}
	.st31{font-size:7.4853px;}
	.st32{font-family:'Arial-BoldMT';}
	.st33{font-size:6px;}
	.st34{enable-background:new    ;}
</style>
<line class="st0" x1="76.7" y1="153.4" x2="155.1" y2="208.3"/>
<line class="st1" x1="76.7" y1="153.4" x2="31.2" y2="207.6"/>
<line class="st2" x1="155.1" y1="208.3" x2="238.2" y2="208.3"/>
<line class="st3" x1="155.1" y1="208.3" x2="155.1" y2="286"/>
<line class="st4" x1="309.2" y1="158.5" x2="349.7" y2="47.4"/>
<line class="st5" x1="309.2" y1="158.5" x2="430.8" y2="158.5"/>
<line class="st6" x1="238.2" y1="208.3" x2="309.2" y2="158.5"/>
<line class="st7" x1="238.2" y1="208.3" x2="303.2" y2="253.8"/>
<line class="st8" x1="349.7" y1="47.4" x2="449.1" y2="47.4"/>
<line class="st9" x1="155.1" y1="286" x2="212.9" y2="368.5"/>
<line class="st10" x1="155.1" y1="286" x2="86.2" y2="384.5"/>
<line class="st11" x1="430.8" y1="158.5" x2="527.7" y2="158.5"/>
<line class="st12" x1="212.9" y1="368.5" x2="318.5" y2="368.5"/>
<line class="st13" x1="76.7" y1="28.6" x2="76.7" y2="153.4"/>
<g>
	<circle class="st14" cx="76.7" cy="153.4" r="7.5"/>
	<circle class="st15" cx="155.1" cy="208.3" r="7.5"/>
	<circle class="st16" cx="309.2" cy="158.5" r="7.5"/>
	<circle class="st17" cx="238.2" cy="208.3" r="7.5"/>
	<circle class="st18" cx="349.7" cy="47.4" r="7.5"/>
	<circle class="st19" cx="155.1" cy="286" r="7.5"/>
	<circle class="st20" cx="31.2" cy="207.6" r="7.5"/>
	<circle class="st21" cx="430.8" cy="158.5" r="7.5"/>
	<circle class="st22" cx="303.2" cy="253.8" r="7.5"/>
	<circle class="st23" cx="212.9" cy="368.5" r="7.5"/>
	<circle class="st24" cx="527.7" cy="158.5" r="7.5"/>
	<circle class="st25" cx="449.1" cy="47.4" r="7.5"/>
	<circle class="st26" cx="318.5" cy="368.5" r="7.5"/>
	<circle class="st27" cx="86.2" cy="384.5" r="7.5"/>
	<circle class="st28" cx="76.7" cy="28.6" r="15"/>
</g>
<g>
	<text transform="matrix(1 0 0 1 74.6267 156.4966)" class="st29 st30 st31">1</text>
	<text transform="matrix(1 0 0 1 153.0174 211.3863)" class="st29 st30 st31">2</text>
	<text transform="matrix(1 0 0 1 307.1629 161.6367)" class="st29 st30 st31">3</text>
	<text transform="matrix(1 0 0 1 236.1131 211.3863)" class="st29 st30 st31">4</text>
	<text transform="matrix(1 0 0 1 347.5926 50.5576)" class="st29 st30 st31">5</text>
	<text transform="matrix(1 0 0 1 153.0174 289.1621)" class="st29 st30 st31">6</text>
	<text transform="matrix(1 0 0 1 29.1072 210.7442)" class="st29 st30 st31">7</text>
	<text transform="matrix(1 0 0 1 428.6844 161.6367)" class="st29 st30 st31">8</text>
	<text transform="matrix(1 0 0 1 301.1033 256.8931)" class="st29 st30 st31">9</text>
	<text transform="matrix(1 0 0 1 208.7019 371.6612)" class="st29 st30 st31">10</text>
	<text transform="matrix(1 0 0 1 523.8171 161.6367)" class="st29 st30 st31">11</text>
	<text transform="matrix(1 0 0 1 444.9863 50.5572)" class="st29 st30 st31">12</text>
	<text transform="matrix(1 0 0 1 314.3098 371.6616)" class="st29 st30 st31">14</text>
	<text transform="matrix(1 0 0 1 81.9998 387.6123)" class="st29 st30 st31">15</text>
	<text transform="matrix(1 0 0 1 65.2683 31.7412)" class="st29 st30 st31">normal</text>
</g>
<text transform="matrix(1 0 0 1 113.5885 176.2813)" class="st32 st33">(24)</text>
<text transform="matrix(1 0 0 1 57.4356 187.8216)" class="st32 st33">(6)</text>
<text transform="matrix(1 0 0 1 188.8193 200.7818)" class="st32 st33">(16)</text>
<text transform="matrix(1 0 0 1 160.3209 250.2744)" class="st32 st33">(12)</text>
<text transform="matrix(1 0 0 1 350.9732 99.8591)" class="st32 st33">(27)</text>
<text transform="matrix(1 0 0 1 334.6812 106.0969)" class="st32 st33">CARD11 Glu420Gln</text>
<text transform="matrix(1 0 0 1 364.6974 170.0435)" class="st32 st33">(59)</text>
<text transform="matrix(1 0 0 1 350.048 178.7569)" class="st34"><tspan x="0" y="0" class="st32 st33">IL7R 3’ UTR</tspan><tspan x="0" y="7.2" class="st32 st33">EGFR Thr790Met</tspan></text>
<text transform="matrix(1 0 0 1 281.9497 188.7569)" class="st32 st33">(9)</text>
<text transform="matrix(1 0 0 1 277.2071 229.5989)" class="st32 st33">(6)</text>
<text transform="matrix(1 0 0 1 403.4656 36.581)" class="st32 st33">(31)</text>
<text transform="matrix(1 0 0 1 191.4244 325.8704)" class="st32 st33">(19)</text>
<text transform="matrix(1 0 0 1 128.6624 349.8293)" class="st32 st33">(162)</text>
<text transform="matrix(1 0 0 1 115.9036 358.5341)" class="st34"><tspan x="0" y="0" class="st32 st33">MTOR Splice variant</tspan><tspan x="0" y="7.2" class="st32 st33">SPEN Gln2891Lys</tspan><tspan x="0" y="14.4" class="st32 st33">TET2 Glu788Ter</tspan><tspan x="0" y="21.6" class="st32 st33">IL7R 3’UTR</tspan><tspan x="0" y="28.8" class="st32 st33">EGFR 3’UTR</tspan></text>
<text transform="matrix(1 0 0 1 473.98 170.0435)" class="st32 st33">(28)</text>
<text transform="matrix(1 0 0 1 462.6622 178.7569)" class="st34"><tspan x="0" y="0" class="st32 st33">TET2 Glu788Ter</tspan><tspan x="0" y="7.2" class="st32 st33">CARD11 5’UTR</tspan></text>
<text transform="matrix(1 0 0 1 243.4443 360.8832)" class="st32 st33">(176)</text>
<text transform="matrix(1 0 0 1 262.8388 338.8701)" class="st34"><tspan x="0" y="0" class="st32 st33">TET2 Glu788Ter</tspan><tspan x="0" y="7.2" class="st32 st33">FAT1 Asp1399Tyr</tspan><tspan x="0" y="14.4" class="st32 st33">AKT1 Gln218Ter</tspan><tspan x="0" y="21.6" class="st32 st33">TTLL9 3’UTR</tspan></text>
<text transform="matrix(1 0 0 1 98.0033 89.5711)" class="st32 st33">(63)</text>
<text transform="matrix(1 0 0 1 85.3539 95.8084)" class="st32 st33">EGFR Glu701_Ala705del</text>
</svg>
